# Blender v2.93.3 OBJ File: 'rapier.blend'
# www.blender.org
mtllib rapier.mtl
o Cube_Cube.001
v -0.012510 -0.073097 -0.032362
v -0.012510 0.073097 -0.032362
v 0.012510 -0.073097 -0.032362
v 0.012510 0.073097 -0.032362
v -0.001139 0.000130 -1.167605
v -0.003010 -0.000343 -1.167605
v 0.003010 -0.000343 -1.167605
v 0.003010 0.000343 -1.167605
v -0.096879 0.000000 -0.032362
v 0.096879 0.000000 -0.032362
v -0.004660 0.000107 -1.167605
v 0.002789 0.000107 -1.167605
v 0.000000 0.179693 -0.099282
v -0.000000 0.158323 0.099282
v 0.057536 0.166014 -0.099282
v 0.050693 0.146271 0.099282
v 0.106312 0.127062 -0.099282
v 0.093669 0.111951 0.099282
v 0.138904 0.068765 -0.099282
v 0.122385 0.060587 0.099282
v 0.150349 -0.000000 -0.099282
v 0.132468 -0.000000 0.099282
v 0.138904 -0.068765 -0.099282
v 0.122385 -0.060587 0.099282
v 0.106312 -0.127062 -0.099282
v 0.093669 -0.111951 0.099282
v 0.057536 -0.166014 -0.099282
v 0.050693 -0.146271 0.099282
v -0.000000 -0.179693 -0.099282
v -0.000000 -0.158323 0.099282
v -0.057536 -0.166014 -0.099282
v -0.050693 -0.146271 0.099282
v -0.106312 -0.127062 -0.099282
v -0.093669 -0.111951 0.099282
v -0.138904 -0.068765 -0.099282
v -0.122385 -0.060587 0.099282
v -0.150349 0.000000 -0.099282
v -0.132468 -0.000000 0.099282
v -0.138904 0.068765 -0.099282
v -0.122385 0.060587 0.099282
v -0.106312 0.127062 -0.099282
v -0.093669 0.111951 0.099282
v -0.057536 0.166014 -0.099282
v -0.050693 0.146271 0.099282
v 0.057536 0.166014 0.099282
v 0.000000 0.179693 0.099282
v 0.106312 0.127062 0.099282
v 0.138904 0.068765 0.099282
v 0.150349 -0.000000 0.099282
v 0.138904 -0.068765 0.099282
v 0.106312 -0.127062 0.099282
v 0.057536 -0.166014 0.099282
v -0.000000 -0.179693 0.099282
v -0.057536 -0.166014 0.099282
v -0.106312 -0.127062 0.099282
v -0.138904 -0.068765 0.099282
v -0.150349 -0.000000 0.099282
v -0.138904 0.068765 0.099282
v -0.106312 0.127062 0.099282
v -0.057536 0.166014 0.099282
v 0.050693 0.146271 -0.022647
v -0.000000 0.158323 -0.022647
v 0.093669 0.111951 -0.022647
v 0.122385 0.060587 -0.022647
v 0.132468 -0.000000 -0.022647
v 0.122385 -0.060587 -0.022647
v 0.093669 -0.111951 -0.022647
v 0.050693 -0.146271 -0.022647
v -0.000000 -0.158323 -0.022647
v -0.050693 -0.146271 -0.022647
v -0.093669 -0.111951 -0.022647
v -0.122385 -0.060587 -0.022647
v -0.132468 0.000000 -0.022647
v -0.122385 0.060587 -0.022647
v -0.093669 0.111951 -0.022647
v -0.050693 0.146271 -0.022647
v -0.000000 0.158323 0.099282
v 0.050693 0.146271 0.099282
v 0.093669 0.111951 0.099282
v 0.122385 0.060587 0.099282
v 0.132468 -0.000000 0.099282
v 0.122385 -0.060587 0.099282
v 0.093669 -0.111951 0.099282
v 0.050693 -0.146271 0.099282
v -0.000000 -0.158323 0.099282
v -0.050693 -0.146271 0.099282
v -0.093669 -0.111951 0.099282
v -0.122385 -0.060587 0.099282
v -0.132468 -0.000000 0.099282
v -0.122385 0.060587 0.099282
v -0.093669 0.111951 0.099282
v -0.050693 0.146271 0.099282
v 0.057536 0.166014 0.099282
v 0.000000 0.179693 0.099282
v 0.106312 0.127062 0.099282
v 0.138904 0.068765 0.099282
v 0.150349 -0.000000 0.099282
v 0.138904 -0.068765 0.099282
v 0.106312 -0.127062 0.099282
v 0.057536 -0.166014 0.099282
v -0.000000 -0.179693 0.099282
v -0.057536 -0.166014 0.099282
v -0.106312 -0.127062 0.099282
v -0.138904 -0.068765 0.099282
v -0.150349 -0.000000 0.099282
v -0.138904 0.068765 0.099282
v -0.106312 0.127062 0.099282
v -0.057536 0.166014 0.099282
v 0.000000 0.046575 -0.046575
v 0.000000 0.046575 0.046575
v 0.017823 0.043029 -0.046575
v 0.017823 0.043029 0.046575
v 0.032933 0.032933 -0.046575
v 0.032933 0.032933 0.046575
v 0.043029 0.017823 -0.046575
v 0.043029 0.017823 0.046575
v 0.046575 -0.000000 -0.046575
v 0.046575 -0.000000 0.046575
v 0.043029 -0.017823 -0.046575
v 0.043029 -0.017823 0.046575
v 0.032933 -0.032933 -0.046575
v 0.032933 -0.032933 0.046575
v 0.017823 -0.043029 -0.046575
v 0.017823 -0.043029 0.046575
v -0.000000 -0.046575 -0.046575
v -0.000000 -0.046575 0.046575
v -0.017823 -0.043029 -0.046575
v -0.017823 -0.043029 0.046575
v -0.032933 -0.032933 -0.046575
v -0.032933 -0.032933 0.046575
v -0.043029 -0.017823 -0.046575
v -0.043029 -0.017823 0.046575
v -0.046575 0.000000 -0.046575
v -0.046575 -0.000000 0.046575
v -0.043029 0.017823 -0.046575
v -0.043029 0.017823 0.046575
v -0.032933 0.032933 -0.046575
v -0.032933 0.032933 0.046575
v -0.017823 0.043029 -0.046575
v -0.017823 0.043029 0.046575
v 0.000000 0.046575 -0.046575
v 0.017823 0.043029 -0.046575
v 0.017823 0.043029 0.046575
v 0.000000 0.046575 0.046575
v 0.032933 0.032933 -0.046575
v 0.032933 0.032933 0.046575
v 0.043029 0.017823 -0.046575
v 0.043029 0.017823 0.046575
v 0.046575 -0.000000 -0.046575
v 0.046575 -0.000000 0.046575
v 0.043029 -0.017823 -0.046575
v 0.043029 -0.017823 0.046575
v 0.032933 -0.032933 -0.046575
v 0.032933 -0.032933 0.046575
v 0.017823 -0.043029 -0.046575
v 0.017823 -0.043029 0.046575
v -0.000000 -0.046575 -0.046575
v -0.000000 -0.046575 0.046575
v -0.017823 -0.043029 -0.046575
v -0.017823 -0.043029 0.046575
v -0.032933 -0.032933 -0.046575
v -0.032933 -0.032933 0.046575
v -0.043029 -0.017823 -0.046575
v -0.043029 -0.017823 0.046575
v -0.046575 0.000000 -0.046575
v -0.046575 -0.000000 0.046575
v -0.043029 0.017823 -0.046575
v -0.043029 0.017823 0.046575
v -0.032933 0.032933 -0.046575
v -0.032933 0.032933 0.046575
v -0.017823 0.043029 -0.046575
v -0.017823 0.043029 0.046575
v 0.017823 0.043029 0.276880
v 0.000000 0.046575 0.276880
v 0.032933 0.032933 0.276880
v 0.043029 0.017823 0.276880
v 0.046575 -0.000000 0.276880
v 0.043029 -0.017823 0.276880
v 0.032933 -0.032933 0.276880
v 0.017823 -0.043029 0.276880
v 0.000000 -0.046575 0.276880
v -0.017823 -0.043029 0.276880
v -0.032933 -0.032933 0.276880
v -0.043029 -0.017823 0.276880
v -0.046575 -0.000000 0.276880
v -0.043029 0.017823 0.276880
v -0.032933 0.032933 0.276880
v -0.017823 0.043029 0.276880
vt 0.500000 0.250000
vt 0.625000 0.250000
vt 0.625000 0.250000
vt 0.500000 0.250000
vt 0.625000 0.500000
vt 0.500000 0.500000
vt 0.500000 0.500000
vt 0.375000 0.500000
vt 0.375000 0.500000
vt 0.125000 0.500000
vt 0.125000 0.500000
vt 0.875000 0.500000
vt 0.625000 0.500000
vt 0.875000 0.500000
vt 0.375000 0.250000
vt 0.375000 0.250000
vt 1.000000 0.500000
vt 1.000000 1.000000
vt 0.937500 1.000000
vt 0.937500 0.500000
vt 0.875000 1.000000
vt 0.875000 0.500000
vt 0.812500 1.000000
vt 0.812500 0.500000
vt 0.750000 1.000000
vt 0.750000 0.500000
vt 0.687500 1.000000
vt 0.687500 0.500000
vt 0.625000 1.000000
vt 0.625000 0.500000
vt 0.562500 1.000000
vt 0.562500 0.500000
vt 0.500000 1.000000
vt 0.500000 0.500000
vt 0.437500 1.000000
vt 0.437500 0.500000
vt 0.375000 1.000000
vt 0.375000 0.500000
vt 0.312500 1.000000
vt 0.312500 0.500000
vt 0.250000 1.000000
vt 0.250000 0.500000
vt 0.187500 1.000000
vt 0.187500 0.500000
vt 0.125000 1.000000
vt 0.125000 0.500000
vt 0.250000 0.038542
vt 0.330921 0.054638
vt 0.330921 0.054638
vt 0.250000 0.038542
vt 0.062500 1.000000
vt 0.062500 0.500000
vt 0.000000 1.000000
vt 0.000000 0.500000
vt 0.750000 0.490000
vt 0.841844 0.471731
vt 0.919706 0.419706
vt 0.971731 0.341844
vt 0.990000 0.250000
vt 0.971731 0.158156
vt 0.919706 0.080294
vt 0.841844 0.028269
vt 0.750000 0.010000
vt 0.658156 0.028269
vt 0.580294 0.080294
vt 0.528269 0.158156
vt 0.510000 0.250000
vt 0.528269 0.341844
vt 0.580294 0.419706
vt 0.658156 0.471731
vt 0.169079 0.445362
vt 0.250000 0.461458
vt 0.250000 0.490000
vt 0.158156 0.471731
vt 0.100477 0.399523
vt 0.080294 0.419706
vt 0.054638 0.330921
vt 0.028269 0.341844
vt 0.038542 0.250000
vt 0.010000 0.250000
vt 0.054638 0.169079
vt 0.028269 0.158156
vt 0.100477 0.100477
vt 0.080294 0.080294
vt 0.169079 0.054638
vt 0.158156 0.028269
vt 0.250000 0.038542
vt 0.250000 0.010000
vt 0.330921 0.054638
vt 0.341844 0.028269
vt 0.399523 0.100477
vt 0.419706 0.080294
vt 0.445362 0.169079
vt 0.471731 0.158156
vt 0.461458 0.250000
vt 0.490000 0.250000
vt 0.445362 0.330921
vt 0.471731 0.341844
vt 0.399523 0.399523
vt 0.419706 0.419706
vt 0.330921 0.445362
vt 0.341844 0.471731
vt 0.330921 0.445362
vt 0.250000 0.461458
vt 0.169079 0.445362
vt 0.100477 0.399523
vt 0.054638 0.330921
vt 0.038542 0.250000
vt 0.054638 0.169079
vt 0.100477 0.100477
vt 0.169079 0.054638
vt 0.399523 0.100477
vt 0.445362 0.169079
vt 0.461458 0.250000
vt 0.445362 0.330921
vt 0.399523 0.399523
vt 0.330921 0.445362
vt 0.250000 0.461458
vt 0.169079 0.445362
vt 0.169079 0.054638
vt 0.399523 0.399523
vt 0.100477 0.100477
vt 0.445362 0.330921
vt 0.054638 0.169079
vt 0.461458 0.250000
vt 0.038542 0.250000
vt 0.445362 0.169079
vt 0.054638 0.330921
vt 0.399523 0.100477
vt 0.100477 0.399523
vt 1.000000 0.500000
vt 0.937500 0.500000
vt 0.937500 1.000000
vt 1.000000 1.000000
vt 0.875000 0.500000
vt 0.875000 1.000000
vt 0.812500 0.500000
vt 0.812500 1.000000
vt 0.750000 0.500000
vt 0.750000 1.000000
vt 0.687500 0.500000
vt 0.687500 1.000000
vt 0.625000 0.500000
vt 0.625000 1.000000
vt 0.562500 0.500000
vt 0.562500 1.000000
vt 0.500000 0.500000
vt 0.500000 1.000000
vt 0.437500 0.500000
vt 0.437500 1.000000
vt 0.375000 0.500000
vt 0.375000 1.000000
vt 0.312500 0.500000
vt 0.312500 1.000000
vt 0.250000 0.500000
vt 0.250000 1.000000
vt 0.187500 0.500000
vt 0.187500 1.000000
vt 0.125000 0.500000
vt 0.125000 1.000000
vt 0.341844 0.471731
vt 0.419706 0.419706
vt 0.471731 0.341844
vt 0.490000 0.250000
vt 0.471731 0.158156
vt 0.419706 0.080294
vt 0.341844 0.028269
vt 0.250000 0.010000
vt 0.158156 0.028269
vt 0.080294 0.080294
vt 0.028269 0.158156
vt 0.010000 0.250000
vt 0.028269 0.341844
vt 0.080294 0.419706
vt 0.158156 0.471731
vt 0.250000 0.490000
vt 0.062500 0.500000
vt 0.062500 1.000000
vt 0.000000 0.500000
vt 0.000000 1.000000
vt 0.750000 0.490000
vt 0.658156 0.471731
vt 0.580294 0.419706
vt 0.528269 0.341844
vt 0.510000 0.250000
vt 0.528269 0.158156
vt 0.580294 0.080294
vt 0.658156 0.028269
vt 0.750000 0.010000
vt 0.841844 0.028269
vt 0.919706 0.080294
vt 0.971731 0.158156
vt 0.990000 0.250000
vt 0.971731 0.341844
vt 0.919706 0.419706
vt 0.841844 0.471731
vt 1.000000 0.500000
vt 1.000000 1.000000
vt 0.937500 1.000000
vt 0.937500 0.500000
vt 0.875000 1.000000
vt 0.875000 0.500000
vt 0.812500 1.000000
vt 0.812500 0.500000
vt 0.750000 1.000000
vt 0.750000 0.500000
vt 0.687500 1.000000
vt 0.687500 0.500000
vt 0.625000 1.000000
vt 0.625000 0.500000
vt 0.562500 1.000000
vt 0.562500 0.500000
vt 0.500000 1.000000
vt 0.500000 0.500000
vt 0.437500 1.000000
vt 0.437500 0.500000
vt 0.375000 1.000000
vt 0.375000 0.500000
vt 0.312500 1.000000
vt 0.312500 0.500000
vt 0.250000 1.000000
vt 0.250000 0.500000
vt 0.187500 1.000000
vt 0.187500 0.500000
vt 0.125000 1.000000
vt 0.125000 0.500000
vt 0.750000 1.000000
vt 0.687500 1.000000
vt 0.062500 1.000000
vt 0.062500 0.500000
vt 0.000000 1.000000
vt 0.000000 0.500000
vt 0.750000 0.490000
vt 0.841844 0.471731
vt 0.919706 0.419706
vt 0.971731 0.341844
vt 0.990000 0.250000
vt 0.971731 0.158156
vt 0.919706 0.080294
vt 0.841844 0.028269
vt 0.750000 0.010000
vt 0.658156 0.028269
vt 0.580294 0.080294
vt 0.528269 0.158156
vt 0.510000 0.250000
vt 0.528269 0.341844
vt 0.580294 0.419706
vt 0.658156 0.471731
vt 0.341844 0.471731
vt 0.250000 0.490000
vt 0.158156 0.471731
vt 0.080294 0.419706
vt 0.028269 0.341844
vt 0.010000 0.250000
vt 0.028269 0.158156
vt 0.080294 0.080294
vt 0.158156 0.028269
vt 0.250000 0.010000
vt 0.341844 0.028269
vt 0.419706 0.080294
vt 0.471731 0.158156
vt 0.490000 0.250000
vt 0.471731 0.341844
vt 0.419706 0.419706
vt 0.437500 1.000000
vt 0.375000 1.000000
vt 0.125000 1.000000
vt 0.062500 1.000000
vt 0.875000 1.000000
vt 0.812500 1.000000
vt 0.562500 1.000000
vt 0.500000 1.000000
vt 1.000000 1.000000
vt 0.937500 1.000000
vt 0.250000 1.000000
vt 0.187500 1.000000
vt 0.625000 1.000000
vt 0.312500 1.000000
vt 0.000000 1.000000
vn -0.6386 0.7676 -0.0538
vn 0.0000 0.0000 -1.0000
vn 0.6571 -0.7518 -0.0541
vn 0.0000 -0.9980 -0.0640
vn -0.0073 0.9979 -0.0641
vn 0.6560 0.7528 -0.0540
vn -0.6489 -0.7590 -0.0534
vn 0.2313 0.9729 0.0000
vn 0.6240 0.7814 0.0000
vn 0.8729 0.4880 0.0000
vn 0.9864 0.1642 0.0000
vn 0.9864 -0.1642 -0.0000
vn 0.8729 -0.4880 -0.0000
vn 0.6240 -0.7814 -0.0000
vn 0.2313 -0.9729 0.0000
vn -0.2313 -0.9729 0.0000
vn -0.6240 -0.7814 0.0000
vn -0.8729 -0.4880 -0.0000
vn -0.9864 -0.1642 -0.0000
vn -0.9864 0.1642 0.0000
vn -0.8729 0.4880 0.0000
vn -0.2313 0.9729 0.0000
vn -0.6240 0.7814 0.0000
vn -0.0000 0.0000 1.0000
vn -0.1951 -0.9808 0.0000
vn -0.5556 -0.8315 -0.0000
vn -0.8315 -0.5556 -0.0000
vn -0.9808 -0.1951 -0.0000
vn -0.9808 0.1951 0.0000
vn -0.8315 0.5556 0.0000
vn -0.5556 0.8315 0.0000
vn -0.1951 0.9808 0.0000
vn 0.1951 0.9808 0.0000
vn 0.5556 0.8315 0.0000
vn 0.8315 0.5556 0.0000
vn 0.9808 0.1951 0.0000
vn 0.9808 -0.1951 -0.0000
vn 0.8315 -0.5556 -0.0000
vn 0.5556 -0.8315 0.0000
vn 0.1951 -0.9808 0.0000
usemtl None
s off
f 9/1/1 2/2/1 5/3/1 11/4/1
f 11/4/2 5/3/2 8/5/2 12/6/2
f 10/7/3 3/8/3 7/9/3 12/6/3
f 3/8/4 1/10/4 6/11/4 7/9/4
f 2/12/5 4/13/5 8/5/5 5/14/5
f 4/13/6 10/7/6 12/6/6 8/5/6
f 6/15/2 11/4/2 12/6/2 7/9/2
f 1/16/7 9/1/7 11/4/7 6/15/7
f 13/17/8 46/18/8 45/19/8 15/20/8
f 15/20/9 45/19/9 47/21/9 17/22/9
f 17/22/10 47/21/10 48/23/10 19/24/10
f 19/24/11 48/23/11 49/25/11 21/26/11
f 21/26/12 49/25/12 50/27/12 23/28/12
f 23/28/13 50/27/13 51/29/13 25/30/13
f 25/30/14 51/29/14 52/31/14 27/32/14
f 27/32/15 52/31/15 53/33/15 29/34/15
f 29/34/16 53/33/16 54/35/16 31/36/16
f 31/36/17 54/35/17 55/37/17 33/38/17
f 33/38/18 55/37/18 56/39/18 35/40/18
f 35/40/19 56/39/19 57/41/19 37/42/19
f 37/42/20 57/41/20 58/43/20 39/44/20
f 39/44/21 58/43/21 59/45/21 41/46/21
f 30/47/22 28/48/22 68/49/22 69/50/22
f 41/46/23 59/45/23 60/51/23 43/52/23
f 43/52/22 60/51/22 46/53/22 13/54/22
f 13/55/2 15/56/2 17/57/2 19/58/2 21/59/2 23/60/2 25/61/2 27/62/2 29/63/2 31/64/2 33/65/2 35/66/2 37/67/2 39/68/2 41/69/2 43/70/2
f 92/71/24 77/72/24 94/73/24 108/74/24
f 91/75/24 92/71/24 108/74/24 107/76/24
f 90/77/24 91/75/24 107/76/24 106/78/24
f 89/79/24 90/77/24 106/78/24 105/80/24
f 88/81/24 89/79/24 105/80/24 104/82/24
f 87/83/24 88/81/24 104/82/24 103/84/24
f 86/85/24 87/83/24 103/84/24 102/86/24
f 85/87/24 86/85/24 102/86/24 101/88/24
f 84/89/24 85/87/24 101/88/24 100/90/24
f 83/91/24 84/89/24 100/90/24 99/92/24
f 82/93/24 83/91/24 99/92/24 98/94/24
f 81/95/24 82/93/24 98/94/24 97/96/24
f 80/97/24 81/95/24 97/96/24 96/98/24
f 79/99/24 80/97/24 96/98/24 95/100/24
f 78/101/24 79/99/24 95/100/24 93/102/24
f 77/72/24 78/101/24 93/102/24 94/73/24
f 61/103/24 62/104/24 76/105/24 75/106/24 74/107/24 73/108/24 72/109/24 71/110/24 70/111/24 69/50/24 68/49/24 67/112/24 66/113/24 65/114/24 64/115/24 63/116/24
f 16/117/16 14/118/16 62/104/16 61/103/16
f 14/118/15 44/119/15 76/105/15 62/104/15
f 32/120/8 30/47/8 69/50/8 70/111/8
f 18/121/17 16/117/17 61/103/17 63/116/17
f 34/122/9 32/120/9 70/111/9 71/110/9
f 20/123/18 18/121/18 63/116/18 64/115/18
f 36/124/10 34/122/10 71/110/10 72/109/10
f 22/125/19 20/123/19 64/115/19 65/114/19
f 38/126/11 36/124/11 72/109/11 73/108/11
f 24/127/20 22/125/20 65/114/20 66/113/20
f 40/128/12 38/126/12 73/108/12 74/107/12
f 26/129/21 24/127/21 66/113/21 67/112/21
f 42/130/13 40/128/13 74/107/13 75/106/13
f 28/48/23 26/129/23 67/112/23 68/49/23
f 44/119/14 42/130/14 75/106/14 76/105/14
f 109/131/25 111/132/25 112/133/25 110/134/25
f 111/132/26 113/135/26 114/136/26 112/133/26
f 113/135/27 115/137/27 116/138/27 114/136/27
f 115/137/28 117/139/28 118/140/28 116/138/28
f 117/139/29 119/141/29 120/142/29 118/140/29
f 119/141/30 121/143/30 122/144/30 120/142/30
f 121/143/31 123/145/31 124/146/31 122/144/31
f 123/145/32 125/147/32 126/148/32 124/146/32
f 125/147/33 127/149/33 128/150/33 126/148/33
f 127/149/34 129/151/34 130/152/34 128/150/34
f 129/151/35 131/153/35 132/154/35 130/152/35
f 131/153/36 133/155/36 134/156/36 132/154/36
f 133/155/37 135/157/37 136/158/37 134/156/37
f 135/157/38 137/159/38 138/160/38 136/158/38
f 112/161/2 114/162/2 116/163/2 118/164/2 120/165/2 122/166/2 124/167/2 126/168/2 128/169/2 130/170/2 132/171/2 134/172/2 136/173/2 138/174/2 140/175/2 110/176/2
f 137/159/39 139/177/39 140/178/39 138/160/39
f 139/177/40 109/179/40 110/180/40 140/178/40
f 109/181/24 139/182/24 137/183/24 135/184/24 133/185/24 131/186/24 129/187/24 127/188/24 125/189/24 123/190/24 121/191/24 119/192/24 117/193/24 115/194/24 113/195/24 111/196/24
f 141/197/33 144/198/33 143/199/33 142/200/33
f 142/200/34 143/199/34 146/201/34 145/202/34
f 145/202/35 146/201/35 148/203/35 147/204/35
f 147/204/36 148/203/36 150/205/36 149/206/36
f 149/206/37 150/205/37 152/207/37 151/208/37
f 151/208/38 152/207/38 154/209/38 153/210/38
f 153/210/39 154/209/39 156/211/39 155/212/39
f 155/212/40 156/211/40 158/213/40 157/214/40
f 157/214/25 158/213/25 160/215/25 159/216/25
f 159/216/26 160/215/26 162/217/26 161/218/26
f 161/218/27 162/217/27 164/219/27 163/220/27
f 163/220/28 164/219/28 166/221/28 165/222/28
f 165/222/29 166/221/29 168/223/29 167/224/29
f 167/224/30 168/223/30 170/225/30 169/226/30
f 152/207/37 150/205/37 177/227/37 178/228/37
f 169/226/31 170/225/31 172/229/31 171/230/31
f 171/230/32 172/229/32 144/231/32 141/232/32
f 141/233/2 142/234/2 145/235/2 147/236/2 149/237/2 151/238/2 153/239/2 155/240/2 157/241/2 159/242/2 161/243/2 163/244/2 165/245/2 167/246/2 169/247/2 171/248/2
f 173/249/24 174/250/24 188/251/24 187/252/24 186/253/24 185/254/24 184/255/24 183/256/24 182/257/24 181/258/24 180/259/24 179/260/24 178/261/24 177/262/24 176/263/24 175/264/24
f 162/217/26 160/215/26 182/265/26 183/266/26
f 172/229/31 170/225/31 187/267/31 188/268/31
f 148/203/35 146/201/35 175/269/35 176/270/35
f 158/213/40 156/211/40 180/271/40 181/272/40
f 143/199/33 144/198/33 174/273/33 173/274/33
f 168/223/29 166/221/29 185/275/29 186/276/29
f 154/209/38 152/207/38 178/228/38 179/277/38
f 164/219/27 162/217/27 183/266/27 184/278/27
f 144/231/32 172/229/32 188/268/32 174/279/32
f 150/205/36 148/203/36 176/270/36 177/227/36
f 160/215/25 158/213/25 181/272/25 182/265/25
f 170/225/30 168/223/30 186/276/30 187/267/30
f 146/201/34 143/199/34 173/274/34 175/269/34
f 156/211/39 154/209/39 179/277/39 180/271/39
f 166/221/28 164/219/28 184/278/28 185/275/28
